<?xml version="1.0" encoding="iso-8859-1"?>
<!-- Generator: Adobe Illustrator 16.0.0, SVG Export Plug-In . SVG Version: 6.00 Build 0)  -->
<!DOCTYPE svg PUBLIC "-//W3C//DTD SVG 1.1//EN" "http://www.w3.org/Graphics/SVG/1.1/DTD/svg11.dtd">
<svg version="1.1" id="Capa_1" xmlns="http://www.w3.org/2000/svg" xmlns:xlink="http://www.w3.org/1999/xlink" x="0px" y="0px"
	 width="560.52px" height="560.52px" viewBox="0 0 560.52 560.52" style="enable-background:new 0 0 560.52 560.52;"
	 xml:space="preserve">
<g>
	<path d="M107.934,289.229l16.03-16.026v73.045H0V222.285h118.297l-16.033,16.023H16.033v91.913h91.9V289.229z M132.851,217.316
		l-58.045,58.042l-24.984-24.984c-4.056-4.058-10.632-4.058-14.69,0c-4.056,4.058-4.056,10.631,0,14.69l32.327,32.33
		c2.027,2.028,4.686,3.045,7.347,3.045c2.655,0,5.319-1.017,7.346-3.045l65.389-65.391c4.058-4.053,4.058-10.629,0-14.682
		C143.482,213.255,136.909,213.255,132.851,217.316z M168.316,254.277v53.999H560.52v-53.999H168.316z"/>
</g>
<g>
</g>
<g>
</g>
<g>
</g>
<g>
</g>
<g>
</g>
<g>
</g>
<g>
</g>
<g>
</g>
<g>
</g>
<g>
</g>
<g>
</g>
<g>
</g>
<g>
</g>
<g>
</g>
<g>
</g>
</svg>
