<?xml version="1.0" encoding="iso-8859-1"?>
<!-- Generator: Adobe Illustrator 16.0.0, SVG Export Plug-In . SVG Version: 6.00 Build 0)  -->
<!DOCTYPE svg PUBLIC "-//W3C//DTD SVG 1.1//EN" "http://www.w3.org/Graphics/SVG/1.1/DTD/svg11.dtd">
<svg version="1.1" id="Capa_1" xmlns="http://www.w3.org/2000/svg" xmlns:xlink="http://www.w3.org/1999/xlink" x="0px" y="0px"
	 width="554.625px" height="554.625px" viewBox="0 0 554.625 554.625" style="enable-background:new 0 0 554.625 554.625;"
	 xml:space="preserve">
<g>
	<g>
		<rect x="353.812" y="497.25" width="19.125" height="19.125"/>
		<rect x="353.812" y="420.75" width="19.125" height="57.375"/>
		<path d="M487.688,554.625l-57.375-97.537V133.875L315.562,0H105.188c-21.038,0-38.25,17.212-38.25,38.25v439.875
			c0,21.037,17.212,38.25,38.25,38.25h156.825l-22.95,38.25H487.688z M453.263,535.5H271.575l91.8-153L453.263,535.5z
			 M315.562,28.688l89.888,105.188h-70.763c-9.562,0-19.125-9.562-19.125-19.125V28.688z M105.188,497.25
			c-9.562,0-19.125-7.65-19.125-19.125V38.25c0-9.562,7.65-19.125,19.125-19.125h191.25v95.625c0,21.038,17.213,38.25,38.25,38.25
			h76.5v271.575l-47.812-80.325l-89.888,153H105.188z"/>
	</g>
</g>
<g>
</g>
<g>
</g>
<g>
</g>
<g>
</g>
<g>
</g>
<g>
</g>
<g>
</g>
<g>
</g>
<g>
</g>
<g>
</g>
<g>
</g>
<g>
</g>
<g>
</g>
<g>
</g>
<g>
</g>
</svg>
