<?xml version="1.0" encoding="iso-8859-1"?>
<!-- Generator: Adobe Illustrator 19.0.0, SVG Export Plug-In . SVG Version: 6.00 Build 0)  -->
<svg version="1.1" id="Capa_1" xmlns="http://www.w3.org/2000/svg" xmlns:xlink="http://www.w3.org/1999/xlink" x="0px" y="0px"
	 viewBox="0 0 437.082 437.082" style="enable-background:new 0 0 437.082 437.082;" xml:space="preserve">
<g>
	<path d="M396.288,17.483C396.288,7.867,388.42,0,378.804,0H58.278c-9.616,0-17.483,7.867-17.483,17.483v402.115
		c0,9.616,7.867,17.483,17.483,17.483h320.527c9.616,0,17.483-7.867,17.483-17.483V17.483z M361.321,402.115H75.761V34.967h285.56
		V402.115z M122.383,119.469c0-9.616,7.867-17.483,17.483-17.483h157.349c9.616,0,17.483,7.867,17.483,17.483
		s-7.867,17.483-17.483,17.483H139.866C130.25,136.952,122.383,129.085,122.383,119.469z M122.383,212.713
		c0-9.616,7.867-17.483,17.483-17.483h157.349c9.616,0,17.483,7.867,17.483,17.483c0,9.616-7.867,17.483-17.483,17.483H139.866
		C130.25,230.196,122.383,222.329,122.383,212.713z M122.383,311.785c0-9.616,7.867-17.483,17.483-17.483h157.349
		c9.616,0,17.483,7.867,17.483,17.483s-7.867,17.483-17.483,17.483H139.866C130.25,329.268,122.383,321.401,122.383,311.785z"/>
</g>
<g>
</g>
<g>
</g>
<g>
</g>
<g>
</g>
<g>
</g>
<g>
</g>
<g>
</g>
<g>
</g>
<g>
</g>
<g>
</g>
<g>
</g>
<g>
</g>
<g>
</g>
<g>
</g>
<g>
</g>
</svg>
