<?xml version="1.0" encoding="iso-8859-1"?>
<!-- Generator: Adobe Illustrator 16.0.0, SVG Export Plug-In . SVG Version: 6.00 Build 0)  -->
<!DOCTYPE svg PUBLIC "-//W3C//DTD SVG 1.1//EN" "http://www.w3.org/Graphics/SVG/1.1/DTD/svg11.dtd">
<svg version="1.1" id="Capa_1" xmlns="http://www.w3.org/2000/svg" xmlns:xlink="http://www.w3.org/1999/xlink" x="0px" y="0px"
	 width="326.162px" height="326.162px" viewBox="0 0 326.162 326.162" style="enable-background:new 0 0 326.162 326.162;"
	 xml:space="preserve">
<g>
	<path d="M45.225,104.836L9.832,69.443L69.346,9.93l35.393,35.393L45.225,104.836z M101.896,161.836l59.519-59.513l-37.858-37.858
		l-59.519,59.519L101.896,161.836z M223.826,164.737l-59.517,59.517l43.126,43.12l59.517-59.511L223.826,164.737z M249.333,284.67
		l53.446,18.199l-18.203-53.441L249.333,284.67z M218.104,159.013l-59.519,59.518L50.96,326.157L0,275.195l107.625-107.631
		l59.513-59.517L275.194,0.005l50.968,50.96L218.104,159.013z M229.247,56.051l29.415,29.407l7.346-7.354l-29.399-29.407
		L229.247,56.051z M82.202,261.916l-29.407-29.41l-7.354,7.357l29.407,29.404L82.202,261.916z M118.966,225.15l-29.407-29.405
		l-7.356,7.352l29.41,29.404L118.966,225.15z M155.73,188.388l-29.408-29.407l-7.356,7.354l29.41,29.41L155.73,188.388z
		 M192.491,151.632l-29.407-29.41l-7.354,7.356l29.41,29.408L192.491,151.632z M192.491,92.815l29.41,29.407l7.356-7.354
		l-29.41-29.41L192.491,92.815z"/>
</g>
<g>
</g>
<g>
</g>
<g>
</g>
<g>
</g>
<g>
</g>
<g>
</g>
<g>
</g>
<g>
</g>
<g>
</g>
<g>
</g>
<g>
</g>
<g>
</g>
<g>
</g>
<g>
</g>
<g>
</g>
</svg>
