<?xml version="1.0" encoding="iso-8859-1"?>
<!-- Generator: Adobe Illustrator 16.0.0, SVG Export Plug-In . SVG Version: 6.00 Build 0)  -->
<!DOCTYPE svg PUBLIC "-//W3C//DTD SVG 1.1//EN" "http://www.w3.org/Graphics/SVG/1.1/DTD/svg11.dtd">
<svg version="1.1" id="Capa_1" xmlns="http://www.w3.org/2000/svg" xmlns:xlink="http://www.w3.org/1999/xlink" x="0px" y="0px"
	 width="465.088px" height="465.089px" viewBox="0 0 465.088 465.089" style="enable-background:new 0 0 465.088 465.089;"
	 xml:space="preserve">
<g>
	<path d="M61.21,171.335c-33.749,0-61.21,27.457-61.21,61.21c0,33.752,27.457,61.209,61.21,61.209s61.217-27.457,61.217-61.209
		C122.427,198.796,94.958,171.335,61.21,171.335z M61.21,279.298c-25.781,0-46.752-20.969-46.752-46.753
		c0-25.776,20.971-46.752,46.752-46.752c25.788,0,46.755,20.977,46.755,46.752C107.965,258.329,86.991,279.298,61.21,279.298z
		 M85.765,232.545c0,13.555-10.996,24.547-24.555,24.547c-13.554,0-24.548-10.992-24.548-24.547
		c0-13.554,10.994-24.547,24.548-24.547C74.769,207.998,85.765,218.991,85.765,232.545z M465.088,195.445v74.189
		c0,3.196-2.591,5.789-5.78,5.789H155.637c-3.187,0-5.775-2.593-5.775-5.789v-74.189c0-3.182,2.588-5.776,5.775-5.776h303.663
		C462.498,189.669,465.088,192.263,465.088,195.445z"/>
</g>
<g>
</g>
<g>
</g>
<g>
</g>
<g>
</g>
<g>
</g>
<g>
</g>
<g>
</g>
<g>
</g>
<g>
</g>
<g>
</g>
<g>
</g>
<g>
</g>
<g>
</g>
<g>
</g>
<g>
</g>
</svg>
