<?xml version="1.0" encoding="utf-8"?>
<!-- Svg Vector Icons : http://www.onlinewebfonts.com/icon -->
<!DOCTYPE svg PUBLIC "-//W3C//DTD SVG 1.1//EN" "http://www.w3.org/Graphics/SVG/1.1/DTD/svg11.dtd">
<svg version="1.1" xmlns="http://www.w3.org/2000/svg" xmlns:xlink="http://www.w3.org/1999/xlink" x="0px" y="0px" viewBox="0 0 1000 1000" enable-background="new 0 0 1000 1000" xml:space="preserve">
<metadata> Svg Vector Icons : http://www.onlinewebfonts.com/icon </metadata>
<g><path d="M603.8,319c20.9,0,39,7.6,54.3,22.9c15.3,15.3,22.9,33.4,22.9,54.3c0,20.9-7.7,39-22.9,54.3c-15.2,15.3-33.3,22.9-54.3,22.9c-21,0-39.1-7.6-54.3-22.9c-15.2-15.3-22.9-33.4-22.9-54.3c0-20.9,7.6-39,22.9-54.3C564.8,326.6,582.9,319,603.8,319z M603.8,526.6c20.9,0,39,7.6,54.3,22.9c15.3,15.3,22.9,33.4,22.9,54.3c0,20.9-7.7,39-22.9,54.3S624.8,681,603.8,681c-21,0-39.1-7.6-54.3-22.9c-15.2-15.3-22.9-33.4-22.9-54.3c0-20.9,7.6-39,22.9-54.3C564.8,534.2,582.9,526.6,603.8,526.6z M396.2,758.3c14.5,0,27,4.8,37.4,14.5c10.5,9.6,15.7,21.7,15.7,36.2c0,14.5-5.2,26.6-15.7,36.2c-10.5,9.6-22.9,14.5-37.4,14.5c-14.5,0-26.6-4.8-36.2-14.5c-9.6-9.6-14.5-21.7-14.5-36.2c0-14.5,4.8-26.6,14.5-36.2S381.7,758.3,396.2,758.3z M396.2,319c20.9,0,39,7.6,54.3,22.9c15.3,15.3,22.9,33.4,22.9,54.3c0,20.9-7.7,39-22.9,54.3c-15.2,15.3-33.3,22.9-54.3,22.9c-21,0-39.1-7.6-54.3-22.9c-15.2-15.3-22.9-33.4-22.9-54.3c0-20.9,7.6-39,22.9-54.3C357.2,326.6,375.3,319,396.2,319z M603.8,936.9c16.1,0,24.2,8.9,24.2,26.6s-8,26.6-24.2,26.6c-17.7,0-26.6-8.9-26.6-26.6S586.1,936.9,603.8,936.9z M603.8,758.3c14.5,0,26.6,4.8,36.2,14.5c9.6,9.6,14.5,21.7,14.5,36.2c0,14.5-4.8,26.6-14.5,36.2c-9.6,9.6-21.7,14.5-36.2,14.5c-14.5,0-27-4.8-37.4-14.5c-10.5-9.6-15.7-21.7-15.7-36.2c0-14.5,5.2-26.6,15.7-36.2C576.8,763.1,589.3,758.3,603.8,758.3z M963.4,577.2c17.7,0,26.6,8.9,26.6,26.6c0,16.1-8.9,24.2-26.6,24.2s-26.6-8-26.6-24.2C936.9,586.1,945.7,577.2,963.4,577.2z M809,140.4c14.5,0,26.6,4.8,36.2,14.5c9.6,9.6,14.5,21.7,14.5,36.2s-4.8,26.6-14.5,36.2c-9.6,9.6-21.7,14.5-36.2,14.5c-14.5,0-26.6-4.8-36.2-14.5s-14.5-21.7-14.5-36.2s4.8-26.6,14.5-36.2S794.5,140.4,809,140.4z M809,345.5c14.5,0,26.6,4.8,36.2,14.5c9.6,9.6,14.5,21.7,14.5,36.2c0,14.5-4.8,27-14.5,37.4c-9.6,10.5-21.7,15.7-36.2,15.7c-14.5,0-26.6-5.2-36.2-15.7c-9.6-10.5-14.5-22.9-14.5-37.4c0-14.5,4.8-26.6,14.5-36.2C782.4,350.3,794.5,345.5,809,345.5z M809,758.3c14.5,0,26.6,4.8,36.2,14.5c9.6,9.6,14.5,21.7,14.5,36.2c0,14.5-4.8,26.6-14.5,36.2c-9.6,9.6-21.7,14.5-36.2,14.5c-14.5,0-26.6-4.8-36.2-14.5c-9.6-9.6-14.5-21.7-14.5-36.2c0-14.5,4.8-26.6,14.5-36.2S794.5,758.3,809,758.3z M809,550.7c14.5,0,26.6,5.2,36.2,15.7c9.6,10.5,14.5,22.9,14.5,37.4c0,14.5-4.8,26.6-14.5,36.2c-9.6,9.6-21.7,14.5-36.2,14.5c-14.5,0-26.6-4.8-36.2-14.5c-9.6-9.6-14.5-21.7-14.5-36.2c0-14.5,4.8-27,14.5-37.4C782.4,555.9,794.5,550.7,809,550.7z M396.2,526.6c20.9,0,39,7.6,54.3,22.9c15.3,15.3,22.9,33.4,22.9,54.3c0,20.9-7.7,39-22.9,54.3c-15.2,15.3-33.3,22.9-54.3,22.9c-21,0-39.1-7.6-54.3-22.9S319,624.7,319,603.8c0-20.9,7.6-39,22.9-54.3C357.2,534.2,375.3,526.6,396.2,526.6z M396.2,241.7c-14.5,0-26.6-4.8-36.2-14.5s-14.5-21.7-14.5-36.2s4.8-26.6,14.5-36.2s21.7-14.5,36.2-14.5c14.5,0,27,4.8,37.4,14.5c10.5,9.6,15.7,21.7,15.7,36.2s-5.2,26.6-15.7,36.2C423.2,236.9,410.7,241.7,396.2,241.7z M396.2,63.1c-16.1,0-24.1-8.9-24.1-26.6c0-17.7,8-26.6,24.1-26.6c17.7,0,26.6,8.9,26.6,26.6C422.8,54.3,413.9,63.1,396.2,63.1z M396.2,936.9c17.7,0,26.6,8.9,26.6,26.6s-8.9,26.6-26.6,26.6c-16.1,0-24.1-8.9-24.1-26.6S380.1,936.9,396.2,936.9z M36.6,577.2c17.7,0,26.6,8.9,26.6,26.6c0,16.1-8.9,24.2-26.6,24.2c-17.7,0-26.6-8-26.6-24.2C10,586.1,18.9,577.2,36.6,577.2z M603.8,63.1c-17.7,0-26.6-8.9-26.6-26.6c0-17.7,8.9-26.6,26.6-26.6c16.1,0,24.2,8.9,24.2,26.6C628,54.3,619.9,63.1,603.8,63.1z M603.8,241.7c-14.5,0-27-4.8-37.4-14.5c-10.5-9.6-15.7-21.7-15.7-36.2s5.2-26.6,15.7-36.2c10.5-9.6,22.9-14.5,37.4-14.5c14.5,0,26.6,4.8,36.2,14.5c9.6,9.6,14.5,21.7,14.5,36.2s-4.8,26.6-14.5,36.2C630.4,236.9,618.3,241.7,603.8,241.7z M963.4,422.8c-17.7,0-26.6-8.9-26.6-26.6c0-16.1,8.9-24.1,26.6-24.1s26.6,8,26.6,24.1C990,413.9,981.1,422.8,963.4,422.8z M191,140.4c14.5,0,26.6,4.8,36.2,14.5s14.5,21.7,14.5,36.2s-4.8,26.6-14.5,36.2s-21.7,14.5-36.2,14.5s-26.6-4.8-36.2-14.5s-14.5-21.7-14.5-36.2s4.8-26.6,14.5-36.2S176.6,140.4,191,140.4z M36.6,372.1c17.7,0,26.6,8.1,26.6,24.1c0,17.7-8.9,26.6-26.6,26.6c-17.7,0-26.6-8.9-26.6-26.6C10,380.1,18.9,372.1,36.6,372.1z M191,345.5c14.5,0,26.6,4.8,36.2,14.5c9.6,9.6,14.5,21.7,14.5,36.2c0,14.5-4.8,27-14.5,37.4c-9.6,10.5-21.7,15.7-36.2,15.7s-26.6-5.2-36.2-15.7c-9.6-10.5-14.5-22.9-14.5-37.4c0-14.5,4.8-26.6,14.5-36.2C164.5,350.3,176.6,345.5,191,345.5z M191,758.3c14.5,0,26.6,4.8,36.2,14.5s14.5,21.7,14.5,36.2c0,14.5-4.8,26.6-14.5,36.2c-9.6,9.6-21.7,14.5-36.2,14.5s-26.6-4.8-36.2-14.5c-9.6-9.6-14.5-21.7-14.5-36.2c0-14.5,4.8-26.6,14.5-36.2S176.6,758.3,191,758.3z M191,550.7c14.5,0,26.6,5.2,36.2,15.7c9.6,10.5,14.5,22.9,14.5,37.4c0,14.5-4.8,26.6-14.5,36.2c-9.6,9.6-21.7,14.5-36.2,14.5s-26.6-4.8-36.2-14.5c-9.6-9.6-14.5-21.7-14.5-36.2c0-14.5,4.8-27,14.5-37.4C164.5,555.9,176.6,550.7,191,550.7z"/></g>
</svg>